<svg width="60" height="60" viewBox="0 0 60 60" fill="none" xmlns="http://www.w3.org/2000/svg">
<path d="M30 0C13.5 0 0 13.5241 0 30.1807C0 45.241 10.98 57.741 25.32 60V38.9157H17.7V30.1807H25.32V23.5241C25.32 15.9639 29.79 11.8072 36.66 11.8072C39.93 11.8072 43.3499 12.3795 43.3499 12.3795V19.8193H39.57C35.85 19.8193 34.68 22.1386 34.68 24.5181V30.1807H43.0199L41.6699 38.9157H34.68V60C41.7493 58.8791 48.1866 55.2576 52.8297 49.7893C57.4729 44.3211 60.016 37.3664 59.9999 30.1807C59.9999 13.5241 46.4999 0 30 0Z" fill="#7C7C7C"/>
</svg>
